<mxfile host="app.diagrams.net" modified="2022-05-30T07:07:40.135Z" agent="5.0 (Windows NT 10.0; Win64; x64) AppleWebKit/537.36 (KHTML, like Gecko) Chrome/102.0.0.0 Safari/537.36" etag="XL9Mr-uAfmupKM_JwXNn" version="18.1.3" type="github">
  <diagram id="UpLRYhVr3LgzvEGWOyjZ" name="Page-1">
    <mxGraphModel dx="1038" dy="1639" grid="1" gridSize="10" guides="1" tooltips="1" connect="1" arrows="1" fold="1" page="1" pageScale="1" pageWidth="850" pageHeight="1100" math="0" shadow="0">
      <root>
        <mxCell id="0" />
        <mxCell id="1" parent="0" />
        <mxCell id="CFDaptqN0LKpDF52U9Dy-4" value="" style="edgeStyle=orthogonalEdgeStyle;rounded=0;orthogonalLoop=1;jettySize=auto;html=1;" edge="1" parent="1" source="CFDaptqN0LKpDF52U9Dy-1" target="CFDaptqN0LKpDF52U9Dy-3">
          <mxGeometry relative="1" as="geometry" />
        </mxCell>
        <mxCell id="CFDaptqN0LKpDF52U9Dy-1" value="Start" style="ellipse;whiteSpace=wrap;html=1;" vertex="1" parent="1">
          <mxGeometry x="40" y="-1070" width="140" height="40" as="geometry" />
        </mxCell>
        <mxCell id="CFDaptqN0LKpDF52U9Dy-6" value="" style="edgeStyle=orthogonalEdgeStyle;rounded=0;orthogonalLoop=1;jettySize=auto;html=1;" edge="1" parent="1" source="CFDaptqN0LKpDF52U9Dy-3" target="CFDaptqN0LKpDF52U9Dy-5">
          <mxGeometry relative="1" as="geometry" />
        </mxCell>
        <mxCell id="CFDaptqN0LKpDF52U9Dy-3" value="Faculty CoPo Dashboard" style="rounded=1;whiteSpace=wrap;html=1;" vertex="1" parent="1">
          <mxGeometry x="50" y="-1010" width="120" height="60" as="geometry" />
        </mxCell>
        <mxCell id="CFDaptqN0LKpDF52U9Dy-8" value="" style="edgeStyle=orthogonalEdgeStyle;rounded=0;orthogonalLoop=1;jettySize=auto;html=1;" edge="1" parent="1" source="CFDaptqN0LKpDF52U9Dy-5" target="CFDaptqN0LKpDF52U9Dy-7">
          <mxGeometry relative="1" as="geometry" />
        </mxCell>
        <mxCell id="CFDaptqN0LKpDF52U9Dy-5" value="Question Paper Template" style="shape=process;whiteSpace=wrap;html=1;backgroundOutline=1;" vertex="1" parent="1">
          <mxGeometry x="50" y="-930" width="120" height="60" as="geometry" />
        </mxCell>
        <mxCell id="CFDaptqN0LKpDF52U9Dy-10" style="edgeStyle=orthogonalEdgeStyle;rounded=0;orthogonalLoop=1;jettySize=auto;html=1;exitX=0.5;exitY=1;exitDx=0;exitDy=0;" edge="1" parent="1" source="CFDaptqN0LKpDF52U9Dy-7" target="CFDaptqN0LKpDF52U9Dy-11">
          <mxGeometry relative="1" as="geometry">
            <mxPoint x="110" y="-670" as="targetPoint" />
          </mxGeometry>
        </mxCell>
        <mxCell id="CFDaptqN0LKpDF52U9Dy-12" style="edgeStyle=orthogonalEdgeStyle;rounded=0;orthogonalLoop=1;jettySize=auto;html=1;exitX=1;exitY=0.5;exitDx=0;exitDy=0;" edge="1" parent="1" source="CFDaptqN0LKpDF52U9Dy-7" target="CFDaptqN0LKpDF52U9Dy-13">
          <mxGeometry relative="1" as="geometry">
            <mxPoint x="260" y="-790" as="targetPoint" />
          </mxGeometry>
        </mxCell>
        <mxCell id="CFDaptqN0LKpDF52U9Dy-7" value="Class Check?" style="rhombus;whiteSpace=wrap;html=1;" vertex="1" parent="1">
          <mxGeometry x="70" y="-830" width="80" height="80" as="geometry" />
        </mxCell>
        <mxCell id="CFDaptqN0LKpDF52U9Dy-9" value="UG or PG" style="text;strokeColor=none;fillColor=none;align=left;verticalAlign=middle;spacingLeft=4;spacingRight=4;overflow=hidden;points=[[0,0.5],[1,0.5]];portConstraint=eastwest;rotatable=0;" vertex="1" parent="1">
          <mxGeometry x="125" y="-840" width="80" height="30" as="geometry" />
        </mxCell>
        <mxCell id="CFDaptqN0LKpDF52U9Dy-16" value="" style="edgeStyle=orthogonalEdgeStyle;rounded=0;orthogonalLoop=1;jettySize=auto;html=1;" edge="1" parent="1" source="CFDaptqN0LKpDF52U9Dy-11">
          <mxGeometry relative="1" as="geometry">
            <mxPoint x="110" y="-610" as="targetPoint" />
          </mxGeometry>
        </mxCell>
        <mxCell id="CFDaptqN0LKpDF52U9Dy-11" value="PG Template" style="rounded=1;whiteSpace=wrap;html=1;" vertex="1" parent="1">
          <mxGeometry x="50" y="-720" width="120" height="60" as="geometry" />
        </mxCell>
        <mxCell id="CFDaptqN0LKpDF52U9Dy-20" value="" style="edgeStyle=orthogonalEdgeStyle;rounded=0;orthogonalLoop=1;jettySize=auto;html=1;" edge="1" parent="1" source="CFDaptqN0LKpDF52U9Dy-13" target="CFDaptqN0LKpDF52U9Dy-19">
          <mxGeometry relative="1" as="geometry" />
        </mxCell>
        <mxCell id="CFDaptqN0LKpDF52U9Dy-13" value="UG Template" style="rounded=1;whiteSpace=wrap;html=1;" vertex="1" parent="1">
          <mxGeometry x="200" y="-820" width="120" height="60" as="geometry" />
        </mxCell>
        <mxCell id="CFDaptqN0LKpDF52U9Dy-22" style="edgeStyle=orthogonalEdgeStyle;rounded=0;orthogonalLoop=1;jettySize=auto;html=1;entryX=0.5;entryY=1;entryDx=0;entryDy=0;entryPerimeter=0;" edge="1" parent="1" source="CFDaptqN0LKpDF52U9Dy-18" target="CFDaptqN0LKpDF52U9Dy-21">
          <mxGeometry relative="1" as="geometry" />
        </mxCell>
        <mxCell id="CFDaptqN0LKpDF52U9Dy-18" value="Added Question Part&lt;br&gt;Wise" style="rounded=0;whiteSpace=wrap;html=1;" vertex="1" parent="1">
          <mxGeometry x="50" y="-610" width="120" height="60" as="geometry" />
        </mxCell>
        <mxCell id="CFDaptqN0LKpDF52U9Dy-23" style="edgeStyle=orthogonalEdgeStyle;rounded=0;orthogonalLoop=1;jettySize=auto;html=1;exitX=0.5;exitY=1;exitDx=0;exitDy=0;" edge="1" parent="1" source="CFDaptqN0LKpDF52U9Dy-19" target="CFDaptqN0LKpDF52U9Dy-21">
          <mxGeometry relative="1" as="geometry" />
        </mxCell>
        <mxCell id="CFDaptqN0LKpDF52U9Dy-19" value="&lt;span style=&quot;&quot;&gt;Added Question Part&lt;/span&gt;&lt;br style=&quot;&quot;&gt;&lt;span style=&quot;&quot;&gt;Wise&lt;/span&gt;" style="rounded=0;whiteSpace=wrap;html=1;" vertex="1" parent="1">
          <mxGeometry x="365" y="-820" width="120" height="60" as="geometry" />
        </mxCell>
        <mxCell id="CFDaptqN0LKpDF52U9Dy-21" value="Data Base" style="shape=cylinder3;whiteSpace=wrap;html=1;boundedLbl=1;backgroundOutline=1;size=15;" vertex="1" parent="1">
          <mxGeometry x="395" y="-670" width="60" height="80" as="geometry" />
        </mxCell>
      </root>
    </mxGraphModel>
  </diagram>
</mxfile>
